<svg id="visual" viewBox="0 0 960 540" width="960" height="540" xmlns="http://www.w3.org/2000/svg" xmlns:xlink="http://www.w3.org/1999/xlink" version="1.1"><path d="M0 291L7.3 290C14.7 289 29.3 287 43.8 302.3C58.3 317.7 72.7 350.3 87.2 355.5C101.7 360.7 116.3 338.3 131 324.8C145.7 311.3 160.3 306.7 174.8 299.8C189.3 293 203.7 284 218.2 292.5C232.7 301 247.3 327 261.8 331C276.3 335 290.7 317 305.2 309.7C319.7 302.3 334.3 305.7 349 304.2C363.7 302.7 378.3 296.3 392.8 293.3C407.3 290.3 421.7 290.7 436.2 299.3C450.7 308 465.3 325 480 327.8C494.7 330.7 509.3 319.3 523.8 312.7C538.3 306 552.7 304 567.2 299.8C581.7 295.7 596.3 289.3 611 297.3C625.7 305.3 640.3 327.7 654.8 329.7C669.3 331.7 683.7 313.3 698.2 304.5C712.7 295.7 727.3 296.3 741.8 304C756.3 311.7 770.7 326.3 785.2 323.8C799.7 321.3 814.3 301.7 829 293.5C843.7 285.3 858.3 288.7 872.8 286.8C887.3 285 901.7 278 916.2 292.8C930.7 307.7 945.3 344.3 952.7 362.7L960 381L960 541L952.7 541C945.3 541 930.7 541 916.2 541C901.7 541 887.3 541 872.8 541C858.3 541 843.7 541 829 541C814.3 541 799.7 541 785.2 541C770.7 541 756.3 541 741.8 541C727.3 541 712.7 541 698.2 541C683.7 541 669.3 541 654.8 541C640.3 541 625.7 541 611 541C596.3 541 581.7 541 567.2 541C552.7 541 538.3 541 523.8 541C509.3 541 494.7 541 480 541C465.3 541 450.7 541 436.2 541C421.7 541 407.3 541 392.8 541C378.3 541 363.7 541 349 541C334.3 541 319.7 541 305.2 541C290.7 541 276.3 541 261.8 541C247.3 541 232.7 541 218.2 541C203.7 541 189.3 541 174.8 541C160.3 541 145.7 541 131 541C116.3 541 101.7 541 87.2 541C72.7 541 58.3 541 43.8 541C29.3 541 14.7 541 7.3 541L0 541Z" fill="#ffffff"></path><path d="M0 374L7.3 367.7C14.7 361.3 29.3 348.7 43.8 353.3C58.3 358 72.7 380 87.2 393.2C101.7 406.3 116.3 410.7 131 410.8C145.7 411 160.3 407 174.8 402.3C189.3 397.7 203.7 392.3 218.2 389.8C232.7 387.3 247.3 387.7 261.8 387.7C276.3 387.7 290.7 387.3 305.2 386.3C319.7 385.3 334.3 383.7 349 373.5C363.7 363.3 378.3 344.7 392.8 335C407.3 325.3 421.7 324.7 436.2 334.8C450.7 345 465.3 366 480 373.3C494.7 380.7 509.3 374.3 523.8 374C538.3 373.7 552.7 379.3 567.2 381.5C581.7 383.7 596.3 382.3 611 376C625.7 369.7 640.3 358.3 654.8 353C669.3 347.7 683.7 348.3 698.2 343.3C712.7 338.3 727.3 327.7 741.8 325.5C756.3 323.3 770.7 329.7 785.2 333.2C799.7 336.7 814.3 337.3 829 336.2C843.7 335 858.3 332 872.8 330.3C887.3 328.7 901.7 328.3 916.2 332.5C930.7 336.7 945.3 345.3 952.7 349.7L960 354L960 541L952.7 541C945.3 541 930.7 541 916.2 541C901.7 541 887.3 541 872.8 541C858.3 541 843.7 541 829 541C814.3 541 799.7 541 785.2 541C770.7 541 756.3 541 741.8 541C727.3 541 712.7 541 698.2 541C683.7 541 669.3 541 654.8 541C640.3 541 625.7 541 611 541C596.3 541 581.7 541 567.2 541C552.7 541 538.3 541 523.8 541C509.3 541 494.7 541 480 541C465.3 541 450.7 541 436.2 541C421.7 541 407.3 541 392.8 541C378.3 541 363.7 541 349 541C334.3 541 319.7 541 305.2 541C290.7 541 276.3 541 261.8 541C247.3 541 232.7 541 218.2 541C203.7 541 189.3 541 174.8 541C160.3 541 145.7 541 131 541C116.3 541 101.7 541 87.2 541C72.7 541 58.3 541 43.8 541C29.3 541 14.7 541 7.3 541L0 541Z" fill="#d9e0ed"></path><path d="M0 403L7.3 396.7C14.7 390.3 29.3 377.7 43.8 368.8C58.3 360 72.7 355 87.2 359.8C101.7 364.7 116.3 379.3 131 381.5C145.7 383.7 160.3 373.3 174.8 370.8C189.3 368.3 203.7 373.7 218.2 380.5C232.7 387.3 247.3 395.7 261.8 404.8C276.3 414 290.7 424 305.2 416.3C319.7 408.7 334.3 383.3 349 381C363.7 378.7 378.3 399.3 392.8 401.7C407.3 404 421.7 388 436.2 382.5C450.7 377 465.3 382 480 380.7C494.7 379.3 509.3 371.7 523.8 377.5C538.3 383.3 552.7 402.7 567.2 400.5C581.7 398.3 596.3 374.7 611 368.7C625.7 362.7 640.3 374.3 654.8 375.3C669.3 376.3 683.7 366.7 698.2 361.2C712.7 355.7 727.3 354.3 741.8 352.8C756.3 351.3 770.7 349.7 785.2 350.5C799.7 351.3 814.3 354.7 829 355.2C843.7 355.7 858.3 353.3 872.8 356.8C887.3 360.3 901.7 369.7 916.2 376C930.7 382.3 945.3 385.7 952.7 387.3L960 389L960 541L952.7 541C945.3 541 930.7 541 916.2 541C901.7 541 887.3 541 872.8 541C858.3 541 843.7 541 829 541C814.3 541 799.7 541 785.2 541C770.7 541 756.3 541 741.8 541C727.3 541 712.7 541 698.2 541C683.7 541 669.3 541 654.8 541C640.3 541 625.7 541 611 541C596.3 541 581.7 541 567.2 541C552.7 541 538.3 541 523.8 541C509.3 541 494.7 541 480 541C465.3 541 450.7 541 436.2 541C421.7 541 407.3 541 392.8 541C378.3 541 363.7 541 349 541C334.3 541 319.7 541 305.2 541C290.7 541 276.3 541 261.8 541C247.3 541 232.7 541 218.2 541C203.7 541 189.3 541 174.8 541C160.3 541 145.7 541 131 541C116.3 541 101.7 541 87.2 541C72.7 541 58.3 541 43.8 541C29.3 541 14.7 541 7.3 541L0 541Z" fill="#b4c1db"></path><path d="M0 477L7.3 471.7C14.7 466.3 29.3 455.7 43.8 454.3C58.3 453 72.7 461 87.2 457.7C101.7 454.3 116.3 439.7 131 429.8C145.7 420 160.3 415 174.8 412.8C189.3 410.7 203.7 411.3 218.2 412.3C232.7 413.3 247.3 414.7 261.8 415.7C276.3 416.7 290.7 417.3 305.2 419.3C319.7 421.3 334.3 424.7 349 422.3C363.7 420 378.3 412 392.8 410.7C407.3 409.3 421.7 414.7 436.2 423.2C450.7 431.7 465.3 443.3 480 438.3C494.7 433.3 509.3 411.7 523.8 401.2C538.3 390.7 552.7 391.3 567.2 402.7C581.7 414 596.3 436 611 439.3C625.7 442.7 640.3 427.3 654.8 417.5C669.3 407.7 683.7 403.3 698.2 406.8C712.7 410.3 727.3 421.7 741.8 419.5C756.3 417.3 770.7 401.7 785.2 404.8C799.7 408 814.3 430 829 430.7C843.7 431.3 858.3 410.7 872.8 410C887.3 409.3 901.7 428.7 916.2 434.8C930.7 441 945.3 434 952.7 430.5L960 427L960 541L952.7 541C945.3 541 930.7 541 916.2 541C901.7 541 887.3 541 872.8 541C858.3 541 843.7 541 829 541C814.3 541 799.7 541 785.2 541C770.7 541 756.3 541 741.8 541C727.3 541 712.7 541 698.2 541C683.7 541 669.3 541 654.8 541C640.3 541 625.7 541 611 541C596.3 541 581.7 541 567.2 541C552.7 541 538.3 541 523.8 541C509.3 541 494.7 541 480 541C465.3 541 450.7 541 436.2 541C421.7 541 407.3 541 392.8 541C378.3 541 363.7 541 349 541C334.3 541 319.7 541 305.2 541C290.7 541 276.3 541 261.8 541C247.3 541 232.7 541 218.2 541C203.7 541 189.3 541 174.8 541C160.3 541 145.7 541 131 541C116.3 541 101.7 541 87.2 541C72.7 541 58.3 541 43.8 541C29.3 541 14.7 541 7.3 541L0 541Z" fill="#8ea3c9"></path><path d="M0 427L7.3 437C14.7 447 29.3 467 43.8 472.3C58.3 477.7 72.7 468.3 87.2 459.5C101.7 450.7 116.3 442.3 131 448.8C145.7 455.3 160.3 476.7 174.8 475.2C189.3 473.7 203.7 449.3 218.2 439.7C232.7 430 247.3 435 261.8 448.2C276.3 461.3 290.7 482.7 305.2 491.5C319.7 500.3 334.3 496.7 349 495.5C363.7 494.3 378.3 495.7 392.8 488.7C407.3 481.7 421.7 466.3 436.2 468C450.7 469.7 465.3 488.3 480 493.8C494.7 499.3 509.3 491.7 523.8 490.2C538.3 488.7 552.7 493.3 567.2 483.8C581.7 474.3 596.3 450.7 611 451.8C625.7 453 640.3 479 654.8 483.2C669.3 487.3 683.7 469.7 698.2 464C712.7 458.3 727.3 464.7 741.8 469.5C756.3 474.3 770.7 477.7 785.2 479.5C799.7 481.3 814.3 481.7 829 479.5C843.7 477.3 858.3 472.7 872.8 474.8C887.3 477 901.7 486 916.2 488.3C930.7 490.7 945.3 486.3 952.7 484.2L960 482L960 541L952.7 541C945.3 541 930.7 541 916.2 541C901.7 541 887.3 541 872.8 541C858.3 541 843.7 541 829 541C814.3 541 799.7 541 785.2 541C770.7 541 756.3 541 741.8 541C727.3 541 712.7 541 698.2 541C683.7 541 669.3 541 654.8 541C640.3 541 625.7 541 611 541C596.3 541 581.7 541 567.2 541C552.7 541 538.3 541 523.8 541C509.3 541 494.7 541 480 541C465.3 541 450.7 541 436.2 541C421.7 541 407.3 541 392.8 541C378.3 541 363.7 541 349 541C334.3 541 319.7 541 305.2 541C290.7 541 276.3 541 261.8 541C247.3 541 232.7 541 218.2 541C203.7 541 189.3 541 174.8 541C160.3 541 145.7 541 131 541C116.3 541 101.7 541 87.2 541C72.7 541 58.3 541 43.8 541C29.3 541 14.7 541 7.3 541L0 541Z" fill="#6787b8"></path><path d="M0 502L7.3 502.3C14.7 502.7 29.3 503.3 43.8 501.3C58.3 499.3 72.7 494.7 87.2 491.2C101.7 487.7 116.3 485.3 131 483C145.7 480.7 160.3 478.3 174.8 475.5C189.3 472.7 203.7 469.3 218.2 478C232.7 486.7 247.3 507.3 261.8 514.7C276.3 522 290.7 516 305.2 506.7C319.7 497.3 334.3 484.7 349 481.3C363.7 478 378.3 484 392.8 490.2C407.3 496.3 421.7 502.7 436.2 500.8C450.7 499 465.3 489 480 483.2C494.7 477.3 509.3 475.7 523.8 476.3C538.3 477 552.7 480 567.2 485C581.7 490 596.3 497 611 499.8C625.7 502.7 640.3 501.3 654.8 503.3C669.3 505.3 683.7 510.7 698.2 516.3C712.7 522 727.3 528 741.8 530.8C756.3 533.7 770.7 533.3 785.2 528.5C799.7 523.7 814.3 514.3 829 504.5C843.7 494.7 858.3 484.3 872.8 479.7C887.3 475 901.7 476 916.2 484.3C930.7 492.7 945.3 508.3 952.7 516.2L960 524L960 541L952.7 541C945.3 541 930.7 541 916.2 541C901.7 541 887.3 541 872.8 541C858.3 541 843.7 541 829 541C814.3 541 799.7 541 785.2 541C770.7 541 756.3 541 741.8 541C727.3 541 712.7 541 698.2 541C683.7 541 669.3 541 654.8 541C640.3 541 625.7 541 611 541C596.3 541 581.7 541 567.2 541C552.7 541 538.3 541 523.8 541C509.3 541 494.7 541 480 541C465.3 541 450.7 541 436.2 541C421.7 541 407.3 541 392.8 541C378.3 541 363.7 541 349 541C334.3 541 319.7 541 305.2 541C290.7 541 276.3 541 261.8 541C247.3 541 232.7 541 218.2 541C203.7 541 189.3 541 174.8 541C160.3 541 145.7 541 131 541C116.3 541 101.7 541 87.2 541C72.7 541 58.3 541 43.8 541C29.3 541 14.7 541 7.3 541L0 541Z" fill="#3a6ba6"></path></svg>