<svg id="visual" viewBox="0 0 960 540" width="960" height="540" xmlns="http://www.w3.org/2000/svg" xmlns:xlink="http://www.w3.org/1999/xlink" version="1.1"><path d="M0 363L7.3 358C14.7 353 29.3 343 43.8 337.5C58.3 332 72.7 331 87.2 322.5C101.7 314 116.3 298 131 290.8C145.7 283.7 160.3 285.3 174.8 290.3C189.3 295.3 203.7 303.7 218.2 309.5C232.7 315.3 247.3 318.7 261.8 311.8C276.3 305 290.7 288 305.2 295.3C319.7 302.7 334.3 334.3 349 344.7C363.7 355 378.3 344 392.8 340.8C407.3 337.7 421.7 342.3 436.2 349.5C450.7 356.7 465.3 366.3 480 357.2C494.7 348 509.3 320 523.8 318C538.3 316 552.7 340 567.2 342C581.7 344 596.3 324 611 323.2C625.7 322.3 640.3 340.7 654.8 337.5C669.3 334.3 683.7 309.7 698.2 298.7C712.7 287.7 727.3 290.3 741.8 305.2C756.3 320 770.7 347 785.2 353.7C799.7 360.3 814.3 346.7 829 335.5C843.7 324.3 858.3 315.7 872.8 308.5C887.3 301.3 901.7 295.7 916.2 300.2C930.7 304.7 945.3 319.3 952.7 326.7L960 334L960 541L952.7 541C945.3 541 930.7 541 916.2 541C901.7 541 887.3 541 872.8 541C858.3 541 843.7 541 829 541C814.3 541 799.7 541 785.2 541C770.7 541 756.3 541 741.8 541C727.3 541 712.7 541 698.2 541C683.7 541 669.3 541 654.8 541C640.3 541 625.7 541 611 541C596.3 541 581.7 541 567.2 541C552.7 541 538.3 541 523.8 541C509.3 541 494.7 541 480 541C465.3 541 450.7 541 436.2 541C421.7 541 407.3 541 392.8 541C378.3 541 363.7 541 349 541C334.3 541 319.7 541 305.2 541C290.7 541 276.3 541 261.8 541C247.3 541 232.7 541 218.2 541C203.7 541 189.3 541 174.8 541C160.3 541 145.7 541 131 541C116.3 541 101.7 541 87.2 541C72.7 541 58.3 541 43.8 541C29.3 541 14.7 541 7.3 541L0 541Z" fill="#11253e"></path><path d="M0 345L7.3 342.3C14.7 339.7 29.3 334.3 43.8 328.5C58.3 322.7 72.7 316.3 87.2 327.8C101.7 339.3 116.3 368.7 131 383.7C145.7 398.7 160.3 399.3 174.8 384.7C189.3 370 203.7 340 218.2 333.5C232.7 327 247.3 344 261.8 361.3C276.3 378.7 290.7 396.3 305.2 388.2C319.7 380 334.3 346 349 330.2C363.7 314.3 378.3 316.7 392.8 320.7C407.3 324.7 421.7 330.3 436.2 338.5C450.7 346.7 465.3 357.3 480 366.3C494.7 375.3 509.3 382.7 523.8 377.2C538.3 371.7 552.7 353.3 567.2 357.2C581.7 361 596.3 387 611 386.8C625.7 386.7 640.3 360.3 654.8 349.2C669.3 338 683.7 342 698.2 338C712.7 334 727.3 322 741.8 321.2C756.3 320.3 770.7 330.7 785.2 340.8C799.7 351 814.3 361 829 366.3C843.7 371.7 858.3 372.3 872.8 367C887.3 361.7 901.7 350.3 916.2 353.3C930.7 356.3 945.3 373.7 952.7 382.3L960 391L960 541L952.7 541C945.3 541 930.7 541 916.2 541C901.7 541 887.3 541 872.8 541C858.3 541 843.7 541 829 541C814.3 541 799.7 541 785.2 541C770.7 541 756.3 541 741.8 541C727.3 541 712.7 541 698.2 541C683.7 541 669.3 541 654.8 541C640.3 541 625.7 541 611 541C596.3 541 581.7 541 567.2 541C552.7 541 538.3 541 523.8 541C509.3 541 494.7 541 480 541C465.3 541 450.7 541 436.2 541C421.7 541 407.3 541 392.8 541C378.3 541 363.7 541 349 541C334.3 541 319.7 541 305.2 541C290.7 541 276.3 541 261.8 541C247.3 541 232.7 541 218.2 541C203.7 541 189.3 541 174.8 541C160.3 541 145.7 541 131 541C116.3 541 101.7 541 87.2 541C72.7 541 58.3 541 43.8 541C29.3 541 14.7 541 7.3 541L0 541Z" fill="#193251"></path><path d="M0 401L7.3 394.8C14.7 388.7 29.3 376.3 43.8 375.2C58.3 374 72.7 384 87.2 391.5C101.7 399 116.3 404 131 409.5C145.7 415 160.3 421 174.8 425C189.3 429 203.7 431 218.2 422.3C232.7 413.7 247.3 394.3 261.8 385.7C276.3 377 290.7 379 305.2 384.3C319.7 389.7 334.3 398.3 349 393.5C363.7 388.7 378.3 370.3 392.8 362.7C407.3 355 421.7 358 436.2 365.5C450.7 373 465.3 385 480 390.5C494.7 396 509.3 395 523.8 396.3C538.3 397.7 552.7 401.3 567.2 397.7C581.7 394 596.3 383 611 381.2C625.7 379.3 640.3 386.7 654.8 390.3C669.3 394 683.7 394 698.2 392.3C712.7 390.7 727.3 387.3 741.8 390.2C756.3 393 770.7 402 785.2 397.3C799.7 392.7 814.3 374.3 829 369.2C843.7 364 858.3 372 872.8 371.5C887.3 371 901.7 362 916.2 364.5C930.7 367 945.3 381 952.7 388L960 395L960 541L952.7 541C945.3 541 930.7 541 916.2 541C901.7 541 887.3 541 872.8 541C858.3 541 843.7 541 829 541C814.3 541 799.7 541 785.2 541C770.7 541 756.3 541 741.8 541C727.3 541 712.7 541 698.2 541C683.7 541 669.3 541 654.8 541C640.3 541 625.7 541 611 541C596.3 541 581.7 541 567.2 541C552.7 541 538.3 541 523.8 541C509.3 541 494.7 541 480 541C465.3 541 450.7 541 436.2 541C421.7 541 407.3 541 392.8 541C378.3 541 363.7 541 349 541C334.3 541 319.7 541 305.2 541C290.7 541 276.3 541 261.8 541C247.3 541 232.7 541 218.2 541C203.7 541 189.3 541 174.8 541C160.3 541 145.7 541 131 541C116.3 541 101.7 541 87.2 541C72.7 541 58.3 541 43.8 541C29.3 541 14.7 541 7.3 541L0 541Z" fill="#213f66"></path><path d="M0 418L7.3 424.7C14.7 431.3 29.3 444.7 43.8 444.3C58.3 444 72.7 430 87.2 429.2C101.7 428.3 116.3 440.7 131 436.5C145.7 432.3 160.3 411.7 174.8 409.2C189.3 406.7 203.7 422.3 218.2 431.3C232.7 440.3 247.3 442.7 261.8 436.8C276.3 431 290.7 417 305.2 416.2C319.7 415.3 334.3 427.7 349 437.7C363.7 447.7 378.3 455.3 392.8 451.5C407.3 447.7 421.7 432.3 436.2 426.7C450.7 421 465.3 425 480 428.5C494.7 432 509.3 435 523.8 441.2C538.3 447.3 552.7 456.7 567.2 457.2C581.7 457.7 596.3 449.3 611 438C625.7 426.7 640.3 412.3 654.8 412.3C669.3 412.3 683.7 426.7 698.2 425.7C712.7 424.7 727.3 408.3 741.8 412.8C756.3 417.3 770.7 442.7 785.2 446.5C799.7 450.3 814.3 432.7 829 425.5C843.7 418.3 858.3 421.7 872.8 423.2C887.3 424.7 901.7 424.3 916.2 427.2C930.7 430 945.3 436 952.7 439L960 442L960 541L952.7 541C945.3 541 930.7 541 916.2 541C901.7 541 887.3 541 872.8 541C858.3 541 843.7 541 829 541C814.3 541 799.7 541 785.2 541C770.7 541 756.3 541 741.8 541C727.3 541 712.7 541 698.2 541C683.7 541 669.3 541 654.8 541C640.3 541 625.7 541 611 541C596.3 541 581.7 541 567.2 541C552.7 541 538.3 541 523.8 541C509.3 541 494.7 541 480 541C465.3 541 450.7 541 436.2 541C421.7 541 407.3 541 392.8 541C378.3 541 363.7 541 349 541C334.3 541 319.7 541 305.2 541C290.7 541 276.3 541 261.8 541C247.3 541 232.7 541 218.2 541C203.7 541 189.3 541 174.8 541C160.3 541 145.7 541 131 541C116.3 541 101.7 541 87.2 541C72.7 541 58.3 541 43.8 541C29.3 541 14.7 541 7.3 541L0 541Z" fill="#294d7a"></path><path d="M0 426L7.3 425.7C14.7 425.3 29.3 424.7 43.8 437.5C58.3 450.3 72.7 476.7 87.2 477.7C101.7 478.7 116.3 454.3 131 450C145.7 445.7 160.3 461.3 174.8 466.8C189.3 472.3 203.7 467.7 218.2 465.5C232.7 463.3 247.3 463.7 261.8 467.2C276.3 470.7 290.7 477.3 305.2 474.5C319.7 471.7 334.3 459.3 349 454.3C363.7 449.3 378.3 451.7 392.8 458.3C407.3 465 421.7 476 436.2 482.7C450.7 489.3 465.3 491.7 480 488.5C494.7 485.3 509.3 476.7 523.8 465.8C538.3 455 552.7 442 567.2 444C581.7 446 596.3 463 611 462.3C625.7 461.7 640.3 443.3 654.8 447.5C669.3 451.7 683.7 478.3 698.2 481.7C712.7 485 727.3 465 741.8 461.2C756.3 457.3 770.7 469.7 785.2 476.7C799.7 483.7 814.3 485.3 829 484.3C843.7 483.3 858.3 479.7 872.8 470C887.3 460.3 901.7 444.7 916.2 441.5C930.7 438.3 945.3 447.7 952.7 452.3L960 457L960 541L952.7 541C945.3 541 930.7 541 916.2 541C901.7 541 887.3 541 872.8 541C858.3 541 843.7 541 829 541C814.3 541 799.7 541 785.2 541C770.7 541 756.3 541 741.8 541C727.3 541 712.7 541 698.2 541C683.7 541 669.3 541 654.8 541C640.3 541 625.7 541 611 541C596.3 541 581.7 541 567.2 541C552.7 541 538.3 541 523.8 541C509.3 541 494.7 541 480 541C465.3 541 450.7 541 436.2 541C421.7 541 407.3 541 392.8 541C378.3 541 363.7 541 349 541C334.3 541 319.7 541 305.2 541C290.7 541 276.3 541 261.8 541C247.3 541 232.7 541 218.2 541C203.7 541 189.3 541 174.8 541C160.3 541 145.7 541 131 541C116.3 541 101.7 541 87.2 541C72.7 541 58.3 541 43.8 541C29.3 541 14.7 541 7.3 541L0 541Z" fill="#325c90"></path><path d="M0 524L7.3 519.5C14.7 515 29.3 506 43.8 499.8C58.3 493.7 72.7 490.3 87.2 489.8C101.7 489.3 116.3 491.7 131 488.7C145.7 485.7 160.3 477.3 174.8 479.2C189.3 481 203.7 493 218.2 494.3C232.7 495.7 247.3 486.3 261.8 482.2C276.3 478 290.7 479 305.2 486.8C319.7 494.7 334.3 509.3 349 511.3C363.7 513.3 378.3 502.7 392.8 495.5C407.3 488.3 421.7 484.7 436.2 485.2C450.7 485.7 465.3 490.3 480 490.3C494.7 490.3 509.3 485.7 523.8 492.7C538.3 499.7 552.7 518.3 567.2 527.3C581.7 536.3 596.3 535.7 611 530C625.7 524.3 640.3 513.7 654.8 504.2C669.3 494.7 683.7 486.3 698.2 491.3C712.7 496.3 727.3 514.7 741.8 521.5C756.3 528.3 770.7 523.7 785.2 514.8C799.7 506 814.3 493 829 487.7C843.7 482.3 858.3 484.7 872.8 486.8C887.3 489 901.7 491 916.2 498.2C930.7 505.3 945.3 517.7 952.7 523.8L960 530L960 541L952.7 541C945.3 541 930.7 541 916.2 541C901.7 541 887.3 541 872.8 541C858.3 541 843.7 541 829 541C814.3 541 799.7 541 785.2 541C770.7 541 756.3 541 741.8 541C727.3 541 712.7 541 698.2 541C683.7 541 669.3 541 654.8 541C640.3 541 625.7 541 611 541C596.3 541 581.7 541 567.2 541C552.7 541 538.3 541 523.8 541C509.3 541 494.7 541 480 541C465.3 541 450.7 541 436.2 541C421.7 541 407.3 541 392.8 541C378.3 541 363.7 541 349 541C334.3 541 319.7 541 305.2 541C290.7 541 276.3 541 261.8 541C247.3 541 232.7 541 218.2 541C203.7 541 189.3 541 174.8 541C160.3 541 145.7 541 131 541C116.3 541 101.7 541 87.2 541C72.7 541 58.3 541 43.8 541C29.3 541 14.7 541 7.3 541L0 541Z" fill="#3a6ba6"></path></svg>